<?xml version="1.0" encoding="utf-8"?>
<!-- Generator: Adobe Illustrator 19.2.1, SVG Export Plug-In . SVG Version: 6.00 Build 0)  -->
<svg version="1.1" id="Calque_1" xmlns="http://www.w3.org/2000/svg" xmlns:xlink="http://www.w3.org/1999/xlink" x="0px" y="0px"
	 viewBox="0 0 91.6 91.2" style="enable-background:new 0 0 91.6 91.2;" xml:space="preserve">
<style type="text/css">
	.st0{fill:url(#SVGID_1_);}
</style>
<title>broken-links</title>
<linearGradient id="SVGID_1_" gradientUnits="userSpaceOnUse" x1="0.9998" y1="45.309" x2="91.62" y2="45.309">
	<stop  offset="0" style="stop-color:#0CAEE0"/>
	<stop  offset="1" style="stop-color:#0275EA"/>
</linearGradient>
<path class="st0" d="M90,63.9l-17.9-9l16.9-8.7c0.5-0.3,0.5-0.7,0-1L70,35.4L90.1,25c1-0.5,1.6-1.4,1.5-2.4c0-1-0.6-1.9-1.6-2.4
	L50.9,0.4c-0.7-0.4-1.5-0.4-2-0.4c-0.5,0-1.2,0.1-1.8,0.4L2.6,21.2c-1,0.5-1.6,1.4-1.6,2.4c0,1,0.6,1.9,1.6,2.4l21.4,10.5L3.5,46
	C3,46.3,3,46.7,3.5,47l18.1,8.9l-19,8.9c-1,0.5-1.6,1.4-1.6,2.4c0,1,0.6,1.9,1.6,2.4l42,20.6c0.7,0.3,1.4,0.4,1.9,0.4
	c0.5,0,1.3-0.1,2-0.5l41.7-21.5c1-0.5,1.6-1.4,1.5-2.4C91.6,65.2,91,64.3,90,63.9z M48.8,4.3c0,0,0.1,0,0.1,0c0.1,0,0.1,0,0.1,0
	l36.4,18.4L46.5,42.8c0,0-0.1,0-0.1,0l0,0l-39-19.2L48.8,4.3z M46.5,86.4c0,0-0.1,0-0.1,0l0,0l-39-19.2l18.4-8.6l18.7,9.2
	c0.7,0.3,1.4,0.4,1.9,0.4c0.5,0,1.3-0.1,2-0.5l19.8-10.2l17.2,8.7L46.5,86.4z"/>
</svg>
