<?xml version="1.0" encoding="utf-8"?>
<!-- Generator: Adobe Illustrator 19.2.1, SVG Export Plug-In . SVG Version: 6.00 Build 0)  -->
<svg version="1.1" id="Calque_1" xmlns="http://www.w3.org/2000/svg" xmlns:xlink="http://www.w3.org/1999/xlink" x="0px" y="0px"
	 viewBox="0 0 91.9 91.9" style="enable-background:new 0 0 91.9 91.9;" xml:space="preserve">
<style type="text/css">
	.st0{fill:url(#SVGID_1_);}
</style>
<title>chrome-extension</title>
<linearGradient id="SVGID_1_" gradientUnits="userSpaceOnUse" x1="3.4482" y1="44.4589" x2="87.0897" y2="44.4589">
	<stop  offset="0" style="stop-color:#0CAEE0"/>
	<stop  offset="1" style="stop-color:#0275EA"/>
</linearGradient>
<path class="st0" d="M86.7,87c0.6-1.1,0.5-2.3-0.2-3.3c-1.7-2.5-5.9-10.2-5.3-16.1c0.2-1.6,0.5-3.3,0.9-5.1c1.4-6.3,3.1-14.1-2-25.9
	c-3.6-8.4-9.1-14.9-13.2-19c4.1-2.4,5.8-7.6,3.7-12C68.4,1,62.9-1.1,58.2,1.1s-6.7,7.8-4.5,12.4c0.2,0.4,0.4,0.7,0.6,1L4.1,78.4
	c-0.8,1-0.9,2.3-0.4,3.3c0.2,0.4,0.5,0.8,0.9,1.2c1.4,1.1,3.4,0.9,4.5-0.5l25.4-32.3c4,1.2,21,7.1,27.5,20.9
	c8,17,21.2,17.7,21.7,17.7C85,88.7,86.1,88.1,86.7,87z M60.9,6.9c1.5-0.7,3.2-0.1,3.9,1.4s0.1,3.2-1.4,3.9c-1.5,0.7-3.2,0.1-3.9-1.4
	S59.5,7.6,60.9,6.9z M67.8,68.2C61.2,54,45.7,47.2,38.8,44.7L58.9,19c3.3,2.8,11,10,15.3,20.1c4.2,9.9,2.9,16.1,1.6,22
	c-0.4,2-0.8,3.8-1,5.8c-0.4,4.4,0.9,9,2.4,12.7C74.2,77.8,70.7,74.3,67.8,68.2z"/>
</svg>
