<?xml version="1.0" encoding="utf-8"?>
<!-- Generator: Adobe Illustrator 19.2.1, SVG Export Plug-In . SVG Version: 6.00 Build 0)  -->
<svg version="1.1" id="Calque_1" xmlns="http://www.w3.org/2000/svg" xmlns:xlink="http://www.w3.org/1999/xlink" x="0px" y="0px"
	 viewBox="0 0 90.8 91.1" style="enable-background:new 0 0 90.8 91.1;" xml:space="preserve">
<style type="text/css">
	.st0{fill:url(#SVGID_1_);}
</style>
<title>entities</title>
<linearGradient id="SVGID_1_" gradientUnits="userSpaceOnUse" x1="5.1935" y1="45.4" x2="85.8822" y2="45.4">
	<stop  offset="0" style="stop-color:#0CAEE0"/>
	<stop  offset="1" style="stop-color:#0275EA"/>
</linearGradient>
<path class="st0" d="M85.9,20.5C85.8,20.4,85.8,20.4,85.9,20.5c0-0.2,0-0.3-0.1-0.4c0,0,0,0,0-0.1c0-0.1-0.1-0.2-0.1-0.3
	c0,0,0,0,0-0.1c0-0.1-0.1-0.1-0.1-0.2c0,0,0-0.1-0.1-0.1c0,0,0-0.1-0.1-0.1c-0.1-0.1-0.1-0.2-0.2-0.3c0,0,0,0,0,0
	c-0.1-0.1-0.2-0.2-0.3-0.3c0,0,0,0-0.1,0c-0.1-0.1-0.2-0.1-0.2-0.2c0,0,0,0-0.1,0c-0.1-0.1-0.2-0.1-0.3-0.2c0,0,0,0,0,0l-37.5-18
	c-0.8-0.4-1.7-0.4-2.4,0l-37.5,18c-1,0.5-1.6,1.5-1.6,2.5v46.4c0,1,0.6,2,1.5,2.5l37.5,20.8c0,0,0,0,0,0c0.1,0.1,0.2,0.1,0.3,0.1
	c0,0,0,0,0.1,0c0.1,0,0.2,0.1,0.3,0.1c0,0,0.1,0,0.1,0c0.1,0,0.2,0,0.2,0c0,0,0.1,0,0.1,0c0.1,0,0.2,0,0.3,0c0.1,0,0.2,0,0.3,0
	c0,0,0.1,0,0.1,0c0.1,0,0.2,0,0.2,0c0,0,0.1,0,0.1,0c0.1,0,0.2-0.1,0.3-0.1c0,0,0,0,0.1,0c0.1,0,0.2-0.1,0.3-0.1c0,0,0,0,0,0
	l37.5-20.8c0.9-0.5,1.5-1.4,1.5-2.5V20.8c0,0,0,0,0,0C85.9,20.7,85.9,20.6,85.9,20.5z M80.2,65.5L48.4,83.2v-9.9
	c0-1.6-1.3-2.8-2.8-2.8s-2.8,1.3-2.8,2.8v9.9L10.8,65.5V25.4c3.3,0.6,6.3,2.2,8.7,4.5l5.7,6.3c-0.9,1.2-2.2,2.9-2.5,4.2
	c-0.8,2.9-0.3,5.8,1.1,8.2l18.8-10.9c-1.4-2.4-3.7-4.3-6.6-5c-1.7-0.4-4.3-0.2-5.9,0.2l-0.4,0.3l-6.4-7c-2.4-2.4-5.4-4.2-8.7-5.3
	L45.5,5.9L76.9,21L56.5,32.3c-1.4,0.8-1.9,2.5-1.1,3.8c0.5,0.9,1.5,1.5,2.5,1.5c0.5,0,0.9-0.1,1.4-0.4l21-11.7v16.8h-0.2
	c0,9.3-7.5,16.8-16.8,16.8c-3.3,0-6.4-1-8.9-2.6c0.4-0.9,0.6-1.9,0.6-3c0-2.3-0.9-4.4-2.5-5.9l-2.1,2.1l-4.2-4.2l0,0
	c-0.5-0.5-1.4-0.5-2,0c-0.5,0.5-0.5,1.4,0,2l4.2,4.2l-3.6,3.6l-4.3-4.3l0,0c-0.5-0.5-1.4-0.5-2,0c-0.5,0.5-0.5,1.4,0,2l4.3,4.3
	l-2.1,2.1c1.5,1.5,3.6,2.5,5.9,2.5c1.5,0,2.9-0.4,4.2-1.1c3.6,2.5,7.9,3.9,12.6,3.9c6.8,0,12.8-3,16.9-7.8
	C80.2,57,80.2,65.5,80.2,65.5z"/>
</svg>
