<svg id="Calque_1" data-name="Calque 1" xmlns="http://www.w3.org/2000/svg" xmlns:xlink="http://www.w3.org/1999/xlink" viewBox="0 0 88.68 91.17"><defs><style>.cls-1{fill:url(#Dégradé_sans_nom_7);}</style><linearGradient id="Dégradé_sans_nom_7" x1="2" y1="45.59" x2="90.68" y2="45.59" gradientUnits="userSpaceOnUse"><stop offset="0" stop-color="#0caee0"/><stop offset="1" stop-color="#0275ea"/></linearGradient></defs><title>hreflang</title><path class="cls-1" d="M39.58,91.17a2.93,2.93,0,0,1-2.94-2.93V75C16.42,71.17,2,55.93,2,38,2,17,21.89,0,46.34,0S90.68,17,90.68,38c0,19.06-16.34,35-38.21,37.6L41.94,90A2.91,2.91,0,0,1,39.58,91.17Zm6.77-85.3C25.13,5.87,7.87,20.27,7.87,38,7.87,53.71,21.38,67,40,69.61a2.94,2.94,0,0,1,2.53,2.91v6.73l6-8.2a2.92,2.92,0,0,1,2.1-1.19C70.1,68.06,84.81,54.35,84.81,38,84.81,20.27,67.56,5.87,46.34,5.87ZM33.07,33.07a4.6,4.6,0,1,0,4.6,4.6A4.6,4.6,0,0,0,33.07,33.07Zm13.92,0a4.6,4.6,0,1,0,4.6,4.6A4.6,4.6,0,0,0,47,33.07Zm13.92,0a4.6,4.6,0,1,0,4.6,4.6A4.6,4.6,0,0,0,60.91,33.07Z" transform="translate(-2)"/></svg>