<svg id="Calque_1" data-name="Calque 1" xmlns="http://www.w3.org/2000/svg" xmlns:xlink="http://www.w3.org/1999/xlink" viewBox="0 0 109.33 91.94"><defs><style>.cls-1{fill:url(#Dégradé_sans_nom_12);}</style><linearGradient id="Dégradé_sans_nom_12" y1="45.97" x2="109.33" y2="45.97" gradientUnits="userSpaceOnUse"><stop offset="0" stop-color="#0caee0"/><stop offset="1" stop-color="#0275ea"/></linearGradient></defs><title>http-headers</title><path class="cls-1" d="M7.45,0A7.31,7.31,0,0,0,0,7.11V67.4a7.35,7.35,0,0,0,7.45,7.14H42.24V87H37a2.49,2.49,0,1,0,.23,5H72.06a2.49,2.49,0,0,0,.07-5h-5V74.55h34.79a7.35,7.35,0,0,0,7.45-7.14V7.11A7.31,7.31,0,0,0,101.88,0H7.45Zm0,5h94.43a2.27,2.27,0,0,1,2.48,2.14V67.4a2.3,2.3,0,0,1-2.48,2.17H7.45A2.3,2.3,0,0,1,5,67.4V7.11A2.27,2.27,0,0,1,7.45,5ZM61.81,16.11a2.49,2.49,0,0,0-2,1.59L44.92,55A2.49,2.49,0,1,0,49.5,56.8L64.41,19.53A2.49,2.49,0,0,0,61.81,16.11ZM37.2,22.33a2.49,2.49,0,0,0-1.13.35L13.71,35.1a2.49,2.49,0,0,0,0,4.35L36.07,51.87a2.49,2.49,0,0,0,2.41-4.35L20,37.27,38.48,27A2.49,2.49,0,0,0,37.2,22.33Zm34.63,0a2.49,2.49,0,0,0-1,4.7L89.3,37.27,70.86,47.52a2.49,2.49,0,1,0,2.41,4.35L95.63,39.45a2.49,2.49,0,0,0,0-4.35L73.26,22.67A2.49,2.49,0,0,0,71.83,22.33ZM47.21,74.55H62.12V87H47.21V74.55Z" transform="translate(0 0)"/></svg>