<?xml version="1.0" encoding="utf-8"?>
<!-- Generator: Adobe Illustrator 19.2.1, SVG Export Plug-In . SVG Version: 6.00 Build 0)  -->
<svg version="1.1" id="Calque_1" xmlns="http://www.w3.org/2000/svg" xmlns:xlink="http://www.w3.org/1999/xlink" x="0px" y="0px"
	 viewBox="0 0 924 108.8" style="enable-background:new 0 0 924 108.8;" xml:space="preserve">
<style type="text/css">
	.st0{fill:#FFFFFF;}
</style>
<title>oncrawl-toolbox-logo</title>
<g>
	<path class="st0" d="M390.6,40.1c0,15.5,0,30.9,0,46.4c-4.8,0.1-9.6,0.1-14.4,0.2c-1.1,0-1.4-0.4-1.4-1.4c0.1-1.7,0-3.4,0-5.1
		c0-22.3,0.1-44.7,0-67c0-2.2,0.6-2.8,2.7-2.6c1.8,0.2,3.6,0,5.4,0c3.6,0.1,6.2,2.2,7.2,5.7"/>
	<path class="st0" d="M327.2,44.5c-0.6,2.8-1,5-1.5,7.2c-1.3,5.6-2.6,11.2-3.7,16.8c-1.1,5.5-2.5,10.9-3.3,16.4
		c-0.2,1.4-0.7,1.9-2.2,1.8c-3.9-0.1-7.8-0.1-11.7,0c-1.6,0.1-2.2-0.5-2.6-2c-3.5-13-7.1-26.1-10.7-39.1c-1.6-5.8-3.2-11.7-4.8-17.7
		c4.7,0,9.2,0.1,13.6,0c1.6,0,1.6,1,1.8,2c2,8.6,4,17.2,5.9,25.9c0.8,3.4,1.7,6.8,2.1,10.2c0.1,0.5,0.4,1.1,0.9,2.1
		c1.5-7.4,2.9-14.3,4.4-21.1c1.2-5.9,2.5-11.8,3.6-17.7c0.2-1.1,0.7-1.4,1.8-1.4c4.2,0.1,8.5,0.1,12.7,0c1.1,0,1.6,0.3,1.8,1.4
		c1.2,6.5,2.4,12.9,3.7,19.4c1.3,6.3,2.6,12.6,4.1,19.4c1.6-6.8,3.1-13.2,4.6-19.5c1.2-5.1,2.3-10.1,3.5-15.2c1-3.9,3.2-5.5,7.2-5.5
		c3.1,0,6.2,0,9.5,0c-1.4,5.1-2.7,9.9-4,14.8c-1.6,5.9-3.1,11.7-4.7,17.6c-2.2,8.3-4.5,16.5-6.8,24.8c-0.3,1.2-0.9,1.7-2.2,1.6
		c-4.1-0.1-8.1-0.1-12.2,0c-1.3,0-1.8-0.5-2.1-1.7C333.1,71.7,330.2,58.5,327.2,44.5z"/>
	<path class="st0" d="M282.1,55.2c-0.2,3.6,0.3,8.4-0.3,13.2c-1,8.4-5.6,14.1-13.3,17.1c-7.3,2.9-15.1,3.4-22.8,1.5
		c-12-2.9-17.5-16.9-11.1-27.6c1.5-2.5,3.7-4,6.2-5.4c5.1-2.9,10.8-3.3,16.4-4.2c2.7-0.4,5.3-0.9,7.7-2.1c1.7-0.9,2.8-2.2,2.6-4.3
		c-0.2-2.1-1.6-3.2-3.4-3.7c-3.3-0.8-6.7-1.6-10.2-0.7c-1.9,0.5-3.5,1.1-4.5,2.8c-0.6,0.9-1.3,1-2.2,1c-3.7,0-7.5-0.1-11.2,0
		c-1.9,0.1-2-0.6-1.6-2.1c2-7.2,7-11.5,13.9-13.2c7-1.8,14.2-1.3,21.3,0.4c3.3,0.8,6.2,2.3,8.6,4.8c2.7,2.8,3.9,6.2,4,10
		C282.2,46.5,282.1,50.3,282.1,55.2z M267.8,57c-5.4,2.7-11.3,3-16.7,5c-2.5,0.9-4.3,3.4-4.4,6.5c-0.1,3.1,1.3,5.5,3.8,6.5
		c5.7,2.4,13.5-0.7,16-6.5C268.2,65,267.7,61.2,267.8,57z"/>
	<path class="st0" d="M99.5,65.9c0,6.2-0.1,12.4,0,18.6c0,1.6-0.3,2.3-2.1,2.2c-3.9-0.1-7.8,0-11.7,0c-0.9,0-1.8,0.1-1.8-1.3
		c0.2-12.6-0.3-25.2,0.3-37.8c0.5-10.1,5.9-16.2,15.4-19.3c9.2-2.9,17.9-2,26.4,2.6c5,2.7,7.4,7.1,8.6,12.4c0.6,2.7,0.9,5.4,0.9,8.2
		c0,11-0.1,22,0,33c0,1.9-0.5,2.4-2.3,2.3c-1.9-0.2-3.7,0-5.6,0c-4.7,0-7.6-2.9-7.6-7.6c0-9.8,0-19.7,0-29.5c0-5.7-2.5-9-7.8-10.2
		c-5.2-1.2-9.8,1-12.2,5.8c-0.5,1-0.4,2-0.5,3C99.5,54,99.6,59.9,99.5,65.9C99.5,65.9,99.5,65.9,99.5,65.9z"/>
	<path class="st0" d="M189.2,47.9c-4.8,0.8-8.1-1.1-10.3-5.5c-0.7-1.5-2.3-2.5-3.9-3.1c-5.6-2.4-15-2.7-20.7,3.9
		c-2.8,3.2-3.6,7.5-3.9,11.8c-0.4,5.9,0,11.7,3.7,16.6c5.1,6.9,16.7,8.2,23.3,2.6c1.9-1.6,2.9-3.7,3.6-5.9c0.4-1.2,1-1.6,2.3-1.6
		c2.9,0.1,5.9,0.2,8.8,0c2-0.1,2.1,0.6,1.8,2.3c-1.5,7.9-5.7,13.5-13.2,16.6c-9.9,4.1-19.8,4.1-29.5-0.6c-5.7-2.8-9.5-7.4-11.6-13.4
		c-3.7-10.8-3.3-21.4,1.9-31.6c3.3-6.5,9.2-10.2,16.2-11.8c8.6-2,17.1-1.8,25.2,2.2c6.6,3.3,9.9,8.9,11.1,15.9
		c0.2,1.2-0.2,1.6-1.4,1.5C191.5,47.8,190.4,47.9,189.2,47.9z"/>
	<path class="st0" d="M212.2,69.6c0,5-0.1,10.1,0,15.1c0,1.5-0.3,2-1.9,1.9c-4.1-0.1-8.1-0.1-12.2,0c-1.4,0-1.8-0.4-1.7-1.8
		c0.1-9.4-0.1-18.9,0.1-28.3c0.1-6.2,1.5-12.1,5-17.3c4.5-6.7,11.3-9.5,18.8-10.9c2.6-0.5,5.2-0.6,7.8-0.6c1.2,0,1.7,0.2,1.7,1.6
		c-0.1,4.2-0.1,8.5,0,12.7c0,1.2-0.4,1.5-1.5,1.5c-2.4,0-4.7,0.2-7,0.2c-5.6,0.2-9,5.9-9.1,10.5C212.2,59.4,212.2,64.5,212.2,69.6z"
		/>
	<path class="st0" d="M157.9,57.5c0-5.2,4.5-9.9,9.5-9.8c5.2,0.1,9.1,4.2,9.2,10c0.1,5.2-4.4,10-9.3,10
		C162.6,67.8,157.9,62.7,157.9,57.5z"/>
	<path class="st0" d="M192.1,57.7c0,1.4-1.9,3.3-3.3,3.4c-1.6,0-3.4-1.9-3.3-3.6c0.1-1.6,1.9-3.3,3.4-3.2
		C190.4,54.4,192.1,56.2,192.1,57.7z"/>
	<path class="st0" d="M36.9,9.3c24.8-2.6,39,13.3,41,32.7c1.6,15.6-3,29.4-9.3,36.2C51.5,96.9,17.8,89.6,8.6,71.3
		c-6.4-12.7-5.7-33.2,0-44.5C13.9,16.4,22.6,10.8,36.9,9.3z M24.2,30.3c-5.6,8-6.7,27.1-0.5,36.6C28.8,74.8,46,80,56,69.9
		c3.9-4,5.7-10.7,6.4-17.1C64,36,56,19.7,36.9,23C30.2,24.1,26.8,26.7,24.2,30.3z"/>
</g>
<g>
	<path class="st0" d="M425.3,86.2V10.7h22.4c8.7,0,16,3.1,22.1,9.3c6,6.2,9.1,14.2,9.1,23.8v9.2c0,9.7-3,17.6-9.1,23.8
		c-6,6.2-13.4,9.3-22.1,9.3H425.3z M428.1,13.5v69.9h19.6c7.8,0,14.5-2.9,20.1-8.6c5.5-5.7,8.3-13,8.3-21.7v-9.4
		c0-8.6-2.8-15.8-8.3-21.6c-5.5-5.7-12.2-8.6-20.1-8.6H428.1z"/>
	<path class="st0" d="M514.6,87.3c-6.6,0-12.2-2.6-16.7-7.7c-4.5-5.1-6.8-11.6-6.8-19.3V57c0-8.1,2.3-14.8,6.8-20
		c4.5-5.2,10.2-7.9,17-7.9c6.2,0,11.2,2,14.9,6.1c3.7,4.1,5.5,9.7,5.5,16.8v4.3h-41.4V57v3.3c0,6.8,1.9,12.6,5.8,17.2
		c3.9,4.6,8.8,7,14.9,7c3.4,0,6.6-0.6,9.7-1.9c3.1-1.2,5.6-2.9,7.5-5l1.5,2.2c-2,2.2-4.5,4-7.6,5.4
		C522.5,86.6,518.8,87.3,514.6,87.3z M514.8,31.9c-5.8,0-10.6,2-14.3,6c-3.7,4-5.8,9.1-6.3,15.3l0.2,0.3h38v-1.7
		c0-5.8-1.6-10.5-4.7-14.3C524.6,33.8,520.3,31.9,514.8,31.9z"/>
	<path class="st0" d="M561.7,74.3l2.6,7.6h0.3l2.7-7.6l17.3-44.2h3l-21.8,56l0.1,0.1h-2.7l-21.8-56.1h3L561.7,74.3z"/>
	<path class="st0" d="M617.8,87.3c-6.6,0-12.2-2.6-16.7-7.7c-4.5-5.1-6.8-11.6-6.8-19.3V57c0-8.1,2.3-14.8,6.8-20
		c4.5-5.2,10.2-7.9,17-7.9c6.2,0,11.2,2,14.9,6.1c3.7,4.1,5.5,9.7,5.5,16.8v4.3H597V57v3.3c0,6.8,1.9,12.6,5.8,17.2
		c3.9,4.6,8.8,7,14.9,7c3.4,0,6.6-0.6,9.7-1.9c3.1-1.2,5.6-2.9,7.5-5l1.5,2.2c-2,2.2-4.5,4-7.6,5.4C625.7,86.6,622,87.3,617.8,87.3z
		 M618,31.9c-5.8,0-10.6,2-14.3,6c-3.7,4-5.8,9.1-6.3,15.3l0.2,0.3h38v-1.7c0-5.8-1.6-10.5-4.7-14.3C627.8,33.8,623.5,31.9,618,31.9
		z"/>
	<path class="st0" d="M655.4,86.2h-2.8V5.3h2.8V86.2z"/>
	<path class="st0" d="M669.4,57.1c0-8.2,2.3-14.9,6.8-20.2c4.5-5.2,10.4-7.8,17.7-7.8c7.3,0,13.2,2.6,17.8,7.8
		c4.5,5.2,6.8,11.9,6.8,20.2v2.2c0,8.3-2.3,15-6.8,20.2c-4.5,5.2-10.4,7.8-17.6,7.8c-7.3,0-13.2-2.6-17.8-7.8
		c-4.6-5.2-6.8-12-6.8-20.2V57.1z M672.2,59.3c0,7,2,13,5.9,17.9c3.9,4.9,9.2,7.3,15.9,7.3c6.6,0,11.8-2.5,15.8-7.4
		c3.9-4.9,5.9-10.9,5.9-17.9v-2.2c0-6.9-2-12.8-6-17.8c-4-5-9.2-7.4-15.8-7.4c-6.6,0-11.9,2.5-15.8,7.4c-3.9,5-5.9,10.9-5.9,17.8
		V59.3z"/>
	<path class="st0" d="M774.8,59.2c0,8.6-1.9,15.5-5.6,20.5c-3.7,5-8.9,7.6-15.4,7.6c-4.4,0-8.1-0.9-11.4-2.6c-3.2-1.7-5.8-4.1-7.6-7
		v30.1h-2.8V70.9c0-0.1-0.1-0.2-0.1-0.3c0-0.1,0-0.1,0-0.2V47.6c0,0,0-0.1,0-0.1s0-0.1,0.1-0.3V30.1h2.2l0.6,9.9
		c1.9-3.4,4.4-6.1,7.6-8c3.2-2,7-2.9,11.4-2.9c6.6,0,11.8,2.6,15.5,7.9c3.7,5.2,5.6,12.3,5.6,21.2V59.2z M772,58.1
		c0-7.8-1.6-14.1-4.7-18.9c-3.1-4.9-7.6-7.3-13.6-7.3c-5.3,0-9.5,1.3-12.5,4c-3,2.7-5.2,5.9-6.5,9.8v26.8c1.4,3.7,3.7,6.6,6.9,8.7
		c3.2,2.2,7.3,3.2,12.1,3.2c5.9,0,10.4-2.3,13.5-6.8c3.1-4.6,4.6-10.7,4.6-18.5V58.1z"/>
	<path class="st0" d="M809.7,87.3c-6.6,0-12.2-2.6-16.7-7.7c-4.5-5.1-6.8-11.6-6.8-19.3V57c0-8.1,2.3-14.8,6.8-20
		c4.5-5.2,10.2-7.9,17-7.9c6.2,0,11.2,2,14.9,6.1c3.7,4.1,5.5,9.7,5.5,16.8v4.3H789V57v3.3c0,6.8,1.9,12.6,5.8,17.2
		c3.9,4.6,8.8,7,14.9,7c3.4,0,6.6-0.6,9.7-1.9c3.1-1.2,5.6-2.9,7.5-5l1.5,2.2c-2,2.2-4.5,4-7.6,5.4C817.7,86.6,814,87.3,809.7,87.3z
		 M810,31.9c-5.8,0-10.6,2-14.3,6c-3.7,4-5.8,9.1-6.3,15.3l0.2,0.3h38v-1.7c0-5.8-1.6-10.5-4.7-14.3C819.7,33.8,815.4,31.9,810,31.9
		z"/>
	<path class="st0" d="M868.6,32.1l-3.6-0.3c-5,0-9.1,1.6-12.2,4.8c-3.1,3.2-5.2,7.5-6.1,12.8v36.8h-2.8V30.1h2.3l0.5,9.7v1.9
		c1.6-4,3.9-7.1,6.9-9.4c3.1-2.2,6.9-3.3,11.4-3.3c0.8,0,1.5,0.1,2.2,0.2c0.7,0.1,1.3,0.3,1.7,0.4L868.6,32.1z"/>
	<path class="st0" d="M913.8,72.5c0-3-1.3-5.7-3.8-8.1c-2.5-2.4-7-4.3-13.3-5.7c-6.7-1.4-11.5-3.2-14.5-5.5c-3-2.2-4.5-5.5-4.5-9.9
		c0-4,1.7-7.4,5.1-10.1c3.4-2.7,7.9-4.1,13.7-4.1c6.2,0,11.1,1.5,14.6,4.4c3.6,2.9,5.3,6.7,5.1,11.4l-0.1,0.3h-2.4
		c0-3.7-1.5-6.8-4.6-9.4c-3.1-2.6-7.3-3.9-12.6-3.9c-5.3,0-9.2,1.1-11.9,3.4s-4,4.9-4,7.9c0,2.9,1.1,5.4,3.4,7.5s6.8,3.9,13.6,5.4
		c6.3,1.5,11,3.4,14.2,5.9c3.2,2.5,4.8,6,4.8,10.5c0,4.4-1.8,7.9-5.4,10.7c-3.6,2.7-8.4,4.1-14.3,4.1c-6.5,0-11.7-1.5-15.4-4.4
		c-3.7-2.9-5.5-6.5-5.2-10.7l0.1-0.3h2.3c0.3,4.4,2.2,7.6,5.7,9.6c3.5,2,7.7,3,12.5,3c5.2,0,9.3-1.2,12.3-3.6
		C912.3,78.4,913.8,75.7,913.8,72.5z"/>
</g>
</svg>
