<svg id="Calque_1" data-name="Calque 1" xmlns="http://www.w3.org/2000/svg" xmlns:xlink="http://www.w3.org/1999/xlink" viewBox="0 0 127.41 91.21"><defs><style>.cls-1{fill:url(#Dégradé_sans_nom_7);}</style><linearGradient id="Dégradé_sans_nom_7" y1="45.86" x2="127.41" y2="45.86" gradientUnits="userSpaceOnUse"><stop offset="0" stop-color="#0caee0"/><stop offset="1" stop-color="#0275ea"/></linearGradient></defs><title>twitter-lists</title><path class="cls-1" d="M34.75,8.94h88.32a4.34,4.34,0,0,0,0-8.69H34.75A4.34,4.34,0,0,0,34.75,8.94ZM14.48,0.25H4.34a4.34,4.34,0,0,0,0,8.69H14.48A4.34,4.34,0,1,0,14.48.25Zm108.59,42H34.75a4.34,4.34,0,0,0,0,8.69h88.32A4.34,4.34,0,0,0,123.06,42.24Zm-108.59,0H4.34a4.34,4.34,0,0,0,0,8.69H14.48A4.34,4.34,0,1,0,14.48,42.24ZM123.06,82.78H34.75a4.34,4.34,0,0,0,0,8.69h88.32A4.34,4.34,0,0,0,123.06,82.78Zm-108.59,0H4.34a4.34,4.34,0,0,0,0,8.69H14.48A4.34,4.34,0,1,0,14.48,82.78Z" transform="translate(0 -0.25)"/></svg>